<?xml version="1.0" encoding="UTF-8"?><svg xmlns="http://www.w3.org/2000/svg" viewBox="0 0 900 500"><defs><style>.cls-1{mix-blend-mode:multiply;}.cls-1,.cls-2{fill:#52d54c;}.cls-1,.cls-2,.cls-3,.cls-4{stroke-width:0px;}.cls-5{isolation:isolate;}.cls-3{fill:#282828;}.cls-4{fill:#1ab218;}</style></defs><g class="cls-5"><g id="Layer_1"><path class="cls-3" d="m213.62,183.07c-11.13-6.48-23.76-9.73-37.89-9.73s-26.52,3.24-37.75,9.73c-11.23,6.49-20.09,15.49-26.57,27-6.49,11.52-9.73,24.93-9.73,40.22s3.24,28.12,9.73,39.64c6.48,11.52,15.29,20.52,26.42,27,11.13,6.48,23.67,9.73,37.6,9.73s26.81-3.24,38.04-9.73c11.22-6.48,20.08-15.48,26.57-27,6.48-11.52,9.73-24.83,9.73-39.93s-3.24-28.41-9.73-39.93c-6.49-11.51-15.29-20.52-26.42-27Zm-8.42,90.74c-3,6.39-7.07,11.13-12.2,14.23-5.13,3.1-10.99,4.65-17.57,4.65-6.2,0-11.86-1.55-16.99-4.65-5.13-3.09-9.2-7.84-12.2-14.23-3-6.39-4.5-14.32-4.5-23.81s1.5-17.37,4.5-23.67c3-6.29,7.11-11.03,12.34-14.23,5.23-3.19,10.93-4.79,17.13-4.79s12.15,1.6,17.28,4.79c5.13,3.19,9.19,7.94,12.2,14.23,3,6.29,4.5,14.18,4.5,23.67s-1.5,17.42-4.5,23.81Z"/><path class="cls-3" d="m525.96,182.92c-10.84-6.39-23.52-9.58-38.04-9.58s-28.02,3.34-39.34,10.02c-11.32,6.68-20.09,15.88-26.28,27.59-6.2,11.71-9.29,25.22-9.29,40.51s3.14,28.02,9.44,39.35c6.29,11.32,15.1,20.13,26.42,26.42,11.32,6.29,24.34,9.44,39.05,9.44,11.42,0,21.78-2.13,31.07-6.39,9.29-4.26,17.13-10.06,23.52-17.42,6.39-7.35,10.93-15.58,13.65-24.68h-40.07c-2.32,4.84-5.86,8.81-10.6,11.91-4.75,3.1-10.7,4.65-17.86,4.65s-13.46-1.6-18.87-4.79c-5.42-3.19-9.63-7.74-12.63-13.65-2.48-4.87-3.91-10.44-4.35-16.7h107.86c.39-2.51.58-4.98.58-7.4v-6.53c0-13.74-3-26.03-9-36.88-6-10.84-14.42-19.46-25.26-25.84Zm-73.43,52.85c.78-4.59,2.07-8.67,3.88-12.2,3.19-6.19,7.59-10.79,13.21-13.79,5.61-3,11.71-4.5,18.29-4.5,9.1,0,16.7,2.71,22.79,8.13,6.1,5.42,9.44,12.88,10.02,22.36h-68.2Z"/><path class="cls-3" d="m662.14,173.34c-8.33,0-15.93,1.26-22.79,3.77-6.87,2.52-12.97,6-18.29,10.45-5.33,4.46-9.73,9.87-13.21,16.26l-3.78-27h-34.84v146.35h39.2v-67.66c0-7.94.97-14.52,2.9-19.74,1.93-5.23,4.74-9.34,8.42-12.34,3.67-3,7.98-5.18,12.92-6.53,4.94-1.35,10.31-2.03,16.12-2.03h13.36v-41.52Z"/><path class="cls-3" d="m790.19,200.35c-5.42-8.71-13.17-15.39-23.23-20.04-10.07-4.65-21.97-6.97-35.72-6.97-12.01,0-22.89,2.13-32.67,6.39-9.78,4.26-17.62,10.21-23.52,17.86-5.91,7.65-9.34,16.7-10.31,27.15h38.04c1.16-6.58,4.31-11.47,9.44-14.66,5.13-3.19,11.37-4.79,18.73-4.79,6.77,0,12.2,1.16,16.26,3.48,4.07,2.32,7.06,5.86,9,10.6,1.93,4.75,2.9,10.7,2.9,17.86h-36.3c-13.94,0-25.51,1.94-34.7,5.81-9.2,3.87-16.07,9.2-20.62,15.97-4.55,6.78-6.82,14.62-6.82,23.52,0,8.13,1.89,15.53,5.66,22.21,3.78,6.68,9.63,12.01,17.57,15.97,7.94,3.97,18,5.95,30.2,5.95,5.81,0,11.13-.63,15.97-1.89,4.84-1.26,9.19-3.05,13.07-5.37,3.87-2.32,7.26-5.03,10.16-8.13,2.9-3.09,5.42-6.58,7.55-10.45l4.36,22.36h33.1v-90.6c0-12.78-2.71-23.52-8.13-32.23Zm-32.81,61.27c-.58,4.84-1.7,9.34-3.34,13.5-1.65,4.17-3.92,7.84-6.82,11.03-2.9,3.19-6.34,5.71-10.31,7.55-3.97,1.84-8.47,2.76-13.5,2.76-4.26,0-8.03-.68-11.32-2.03-3.29-1.35-5.81-3.29-7.55-5.81-1.74-2.51-2.61-5.71-2.61-9.58,0-3.48.87-6.58,2.61-9.29,1.74-2.71,4.5-4.79,8.28-6.24,3.77-1.45,8.66-2.18,14.66-2.18h29.91v.29Z"/><path class="cls-2" d="m311.43,302.59c3.22-16.84,10.5-37.55,20.09-55.88-1.25-2.39-2.55-4.75-3.87-7.04-21.3-36.89-59.28-72.83-72.26-65.33-12.99,7.49-.86,58.35,20.44,95.24,9.31,16.12,21.81,32.07,34.01,44.28,2.72,2.72,5.42,5.25,8.07,7.55-5.33-4.68-7.81-11.85-6.48-18.83Z"/><path class="cls-2" d="m345.07,321.48s.05-.05.08-.07c-.1.09-.2.18-.3.26.07-.06.15-.13.22-.19Z"/><path class="cls-2" d="m407.65,174.34c-12.98-7.5-50.96,28.44-72.26,65.33-1.32,2.3-2.62,4.65-3.87,7.04,9.59,18.33,16.87,39.04,20.09,55.88,1.33,6.97-1.15,14.14-6.47,18.82,2.65-2.31,5.35-4.84,8.06-7.55,12.2-12.21,24.7-28.16,34.01-44.28,21.3-36.89,33.43-87.75,20.44-95.24Z"/><path class="cls-1" d="m317.98,321.48c.07.07.15.13.22.19-.1-.08-.2-.17-.29-.26.02.02.05.04.07.07Z"/><path class="cls-2" d="m351.62,302.59c-3.22-16.84-10.5-37.55-20.09-55.88-9.59,18.33-16.87,39.04-20.09,55.88-1.33,6.97,1.15,14.14,6.48,18.83.1.09.2.18.29.26,7.66,6.64,18.98,6.64,26.64,0,.1-.09.2-.18.3-.26,5.32-4.68,7.81-11.85,6.47-18.82Z"/><path class="cls-4" d="m351.62,302.59c-3.22-16.84-10.5-37.55-20.09-55.88-9.59,18.33-16.87,39.04-20.09,55.88-1.33,6.97,1.15,14.14,6.48,18.83.1.09.2.18.29.26,7.66,6.64,18.98,6.64,26.64,0,.1-.09.2-.18.3-.26,5.32-4.68,7.81-11.85,6.47-18.82Z"/></g></g></svg>